<?xml version="1.0" encoding="UTF-8"?>
<svg xmlns="http://www.w3.org/2000/svg" viewBox="0 0 1503.27 692.43">
  <defs>
    <style>
      .cls-1 {
        font-family: MoutardeDEMO-Regular, 'Moutarde DEMO';
        font-size: 267.29px;
      }

      .cls-2 {
        fill: none;
      }

      .cls-2, .cls-3 {
        stroke: #1d1d1b;
        stroke-miterlimit: 10;
        stroke-width: 3px;
      }

      .cls-4, .cls-3 {
        fill: #fff;
      }

      .cls-5, .cls-6 {
        fill: #e30613;
      }

      .cls-6, .cls-7 {
        font-family: MotleyForces-Regular, 'Motley Forces';
        font-size: 165.72px;
      }

      .cls-8 {
        opacity: .39;
      }
    </style>
  </defs>
  <g id="panda">
    <g>
      <path class="cls-4" d="M726.06,101.06l198.56,224.35s119.95-.49,162.21-48.12,88.48-199.22,42.58-223.77c0,0-67.88-62-188.21-48.06s-227.05,80.9-227.05,80.9l11.9,14.7Z"/>
      <path class="cls-4" d="M558.47,344.56s-3.12-23.88,32.21-48.08,120.06-52.81,120.06-52.81c0,0,46.37-92.67-41.22-158.5,0,0-112.66-52.66-224.92,22.9,0,0-26.61,38.78-30.22,68.33,0,0-61.88,39.28-16.34,126.34s0,0,0,0c0,0,34.64,59.13,160.43,41.83"/>
      <path d="M962.45,.05c30.87-.47,61.36,2.31,91.3,10.01,24.5,6.3,47.45,15.99,67.9,31.18,8.54,6.35,15.9,13.8,22.24,22.31,14.57,19.58,26.76,40.65,38.8,61.82,8.38,14.74,18.07,28.54,29.06,41.44,3.81,4.47,8.25,8.06,13.29,11.13,19.33,11.73,36.49,25.86,48.08,45.73,2.83,4.84,5.54,9.86,7.42,15.12,6.78,19,2.61,36.09-9.98,51.41-3.76,4.58-8.73,7.61-14.06,10.08-14.29,6.63-29.47,8.86-45.03,9.34-33.86,1.05-67.07-3.07-99.7-12.15-5.77-1.61-11.61-2.99-17.45-4.32-8.84-2.02-17.1-1.1-25.1,3.82-13.52,8.33-27.95,14.91-43.5,18.33-12.4,2.73-25,4.62-37.56,6.51-35.51,5.35-71.26,6.92-107.1,5.33-24.89-1.1-49.59-4.17-73.75-10.64-3.02-.81-5.59-1.39-8.57,1.01-27.58,22.22-59.12,36.74-92.82,46.84-18.98,5.69-38.25,10.25-57.96,12.62-17.06,2.05-34.14,2.66-50.9-1.75-6.24-1.64-12.47-4.17-17.99-7.5-10.91-6.58-14.91-16.89-13.23-29.38,.99-7.35,4.04-13.9,8.5-19.81,7.34-9.73,16.29-17.71,27.05-23.31,11.74-6.11,23.63-12.08,35.88-17.05,21.36-8.68,43.06-16.54,64.61-24.75,.85-.32,1.67-.74,2.54-.99,10.05-2.88,15.44-10.16,18.8-19.54,8.47-23.62,9.45-47.56,3.17-71.8-5.75-22.21-15.62-42.58-28.28-61.61-2.13-3.2-2.43-5.82-1.47-9.53,1.27-4.89,4.04-6.96,8.61-8.33,16.77-5.05,32.59-12.53,47.81-21.03,31.56-17.62,64.88-31.02,99.03-42.43,25.04-8.37,50.88-13.53,77.21-15.88,10.94-.98,33.16-2.24,33.16-2.24Zm-33.48,320.77c2.33,0,4.12,.11,5.89-.02,27.56-2.02,54.95-5.38,81.98-11.25,12.53-2.72,24.45-6.89,34.7-14.99,7.17-5.66,13.81-11.82,19.32-19.12,28.84-38.17,49.45-80.32,60.59-126.91,6.6-27.62,5.67-55.1-2.68-82.34-2.22-7.25-5.8-13.35-12.09-17.56-7.68-5.15-15.32-10.42-23.39-14.91-10.83-6.02-22.66-9.77-34.51-13.28-20.95-6.21-42.15-11.07-64.14-11.45-28.76-.5-57.38,1.26-85.8,5.67-22.08,3.42-44.04,7.73-65.21,14.94-40.05,13.64-77.27,33.44-114.1,53.98-1.32,.74-2.44,1.83-4.34,3.27,1.77,.38,2.61,.55,3.44,.74,7.62,1.67,15.37,2.9,22.85,5.08,45.04,13.11,83.19,37.59,115.63,71.15,23.63,24.45,42.36,52.17,53.53,84.51,7.55,21.86,11.46,44.28,8.35,67.52-.19,1.41-.02,2.86-.02,4.98Z"/>
      <path d="M503.72,75.81c22.35-7.36,45.47-11.71,69.27-13.48,.25-.99,.58-1.82,.65-2.66,1.91-25.81,23.1-46.47,49.06-48.63,32.3-2.69,63.88,21.43,69.7,55.45,1.51,8.84,2.17,17.7-.64,26.43-.84,2.6,.08,4.51,1.51,6.53,14.81,20.87,24.81,43.91,30.2,68.87,4.97,23,2.66,45.5-5.8,67.41-.46,1.18-1,2.34-1.57,3.48q-2.63,5.27-9.29,7.19c.23-.86,.26-1.5,.55-2,6.79-11.91,9.62-24.99,11.31-38.41,3.49-27.81-2.67-53.8-15.07-78.55-2.68-5.35-5.63-10.59-8.67-15.75-4.15-7.05-9.9-12.4-17.3-16.1-17.54-8.77-36.26-13.85-55.31-17.82-10.12-2.11-20.32-3.92-30.55-5.45-17.6-2.63-35.11-1.75-52.54,1.87-16.58,3.44-32.91,7.62-48.5,14.34-9.37,4.04-18.26,8.93-26.6,14.84-11.12,7.87-20.36,17.49-27.54,29.1-6.7,10.84-12.86,21.93-16.29,34.32-1.04,3.76-3.13,6.81-5.89,9.62-19.83,20.17-29.03,45-30.11,72.75-.76,19.53,5.64,37.25,17.93,52.55,12.12,15.09,27.22,26.01,45.88,31.8,23.78,7.37,48.1,11.05,72.98,11.16,11.73,.05,23.1-2.28,34.47-4.76,1.71-.37,3.44-.62,5.47-.98v8.02c-6.17,1.01-12.19,2.36-18.27,2.93-25.46,2.41-50.82,2.13-75.84-3.92-14.7-3.56-29.03-8.27-42.09-16.06-21.74-12.96-34.75-32.69-41.85-56.41-6.18-20.64-5.28-41.18,2.75-61.39,5.98-15.04,13.72-28.84,25.43-40.2,2.17-2.11,2.83-4.86,3.83-7.61,2.17-5.95,1.03-10.32-2.52-15.82-13.56-20.97-15.83-43.67-5.33-66.47,9.65-20.95,26.7-32.5,50.07-32.36,18.11,.11,32.89,8.07,43.76,22.81,.54,.73,1.05,1.48,1.59,2.21,.11,.14,.26,.25,1.2,1.16Z"/>
      <path d="M382.33,207.95c-18.56,52.62-1.01,93.36,40.29,126.91-4.14,2.3-8.87,2.71-13.34,3.27-20.61,2.62-41.28,3.21-61.91-.03-10.26-1.61-20.33-4.11-29.8-8.4-4.76-2.16-9.43-4.76-13.62-7.87-11.4-8.46-15.15-20.57-14.51-34.11,1.09-22.93,12.69-38.8,33.6-47.99,1.99-.88,3.98-1.79,6.04-2.48,18.62-6.3,35.1-16.51,50.92-27.9,.67-.48,1.4-.86,2.31-1.41Z"/>
      <path d="M606.11,243.66c-11.58-3.28-19.11-10.43-22.08-21.25-3.04-11.04-8.66-20.18-16.21-28.52-5.02-5.56-9-11.86-10.72-19.32-2.04-8.83,.49-19.07,12.43-22.62,8.37-2.49,16.86-3.06,25.28-.97,23.99,5.96,42.01,19.86,53.81,41.63,2.98,5.51,4.14,11.58,4.28,17.84,.05,2.1-.23,3.81-2.67,4.7-16.77,6.1-31.77,15.01-44.12,28.51Zm21.21-43.26c-2.89,3.14-5.6,6.71-8.93,9.55-3.48,2.97-8.05,3.92-12.31,2.27-3.97-1.55-7.52-4.18-11.21-6.31,1.53,6.06,8.23,10.49,15.21,9.98,8.77-.64,16.58-7.74,17.23-15.48Z"/>
      <path d="M511.86,179.86c-.86,15.2-2.93,30.05-8.02,44.4-2.82,7.96-6.69,15.26-12.64,21.38-10.91,11.24-27.05,10.28-36.36-2.29-5.97-8.06-9.47-17.08-10.13-27.15-.55-8.41,1.22-16.27,5.69-23.41,2.31-3.68,5.02-7.11,7.49-10.69,5.04-7.31,9.89-14.76,15.1-21.94,2.74-3.77,5.66-7.63,9.24-10.52,6-4.85,12.95-4.35,18.97,.52,4.86,3.93,7.79,9.16,8.97,15.17,.94,4.77,1.15,9.69,1.68,14.54Zm-46.95,24.48c-.73,6.91,3.33,13.34,10.13,16.06,6.61,2.64,13.58,1,17.2-4.03-14.82,5.56-18.57,3.91-27.33-12.03Z"/>
      <path d="M548.62,228.25c1.66,.58,4.76,1.16,7.32,2.67,3.34,1.97,3.29,4.81,.34,7.48-3.22,2.91-6.57,5.69-9.76,8.64-1.69,1.56-3.46,1.91-5.45,.89-3.37-1.73-6.87-3.29-10.01-5.38-3.95-2.65-3.96-5.77-.08-8.76,4.74-3.65,10.33-5.08,17.62-5.53Z"/>
      <path d="M585.97,260.6c4.01,1.63,5.29,4.46,6.94,8.1-3.84-1.31-5.22,.77-6.87,3.09-6.46,9.08-19.5,13.94-29.94,10.81-4.05-1.21-7.68-3.83-11.82-5.97-1.02,1.19-2.32,2.92-3.83,4.43-6.17,6.15-13.34,9.35-22.19,7.09-1.39-.35-2.85-.84-4-1.65-2.4-1.7-4.8-3.15-7.87-3.25-.69-.02-1.35-.92-2.73-1.93,3.37-1.32,5.76-1.26,8.04,.59,8.99,7.31,23.16,2.63,28.1-4.78,1.18-1.78,2.62-3.38,4.15-5.33,1.37,.91,2.49,1.46,3.36,2.26,5.68,5.22,12.39,6.57,19.76,5.31,5.28-.91,10.12-3.03,14.24-6.45,3.64-3.02,7.63-6.06,4.65-12.32Z"/>
      <path class="cls-4" d="M627.32,200.4c-.65,7.75-8.47,14.84-17.23,15.48-6.98,.51-13.68-3.91-15.21-9.98,3.69,2.13,7.24,4.77,11.21,6.31,4.26,1.66,8.84,.7,12.31-2.27,3.33-2.84,6.04-6.41,8.93-9.55Z"/>
      <path class="cls-4" d="M464.9,204.34c8.77,15.94,12.51,17.59,27.33,12.03-3.62,5.03-10.6,6.66-17.2,4.03-6.8-2.71-10.86-9.15-10.13-16.06Z"/>
    </g>
  </g>
  <g id="Calque_5" data-name="Calque 5">
    <text class="cls-1" transform="translate(520.24 267.73) rotate(143.5)"><tspan x="0" y="0"> </tspan></text>
    <text class="cls-1" transform="translate(454.77 317.8) rotate(132.31)"><tspan x="0" y="0"> </tspan></text>
    <text class="cls-6" transform="translate(445.36 561.37) rotate(20.62)"><tspan x="0" y="0">M</tspan></text>
    <text class="cls-6" transform="translate(585.4 605.78) rotate(5.41)"><tspan x="0" y="0">a</tspan></text>
    <text class="cls-6" transform="translate(699.51 615.11) rotate(-1.85)"><tspan x="0" y="0">n</tspan></text>
    <text class="cls-6" transform="translate(804.74 611.14) rotate(-7.42)"><tspan x="0" y="0">g</tspan></text>
    <text class="cls-6" transform="translate(912.38 596.94) rotate(-12.81)"><tspan x="0" y="0">a</tspan></text>
    <text class="cls-7" transform="translate(1018.82 572.47) rotate(-17.2)"><tspan x="0" y="0">p</tspan></text>
    <text class="cls-7" transform="translate(1111.37 543.64) rotate(-22.39)"><tspan x="0" y="0">é</tspan></text>
    <text class="cls-7" transform="translate(1210.33 502.56) rotate(-29.29)"><tspan x="0" y="0">d</tspan></text>
    <text class="cls-7" transform="translate(1309.37 444.08) rotate(-36.79)"><tspan x="0" y="0">i</tspan></text>
    <text class="cls-7" transform="translate(1367.08 402.56) rotate(-51.21)"><tspan x="0" y="0">e</tspan></text>
  </g>
  <g id="Calque_7" data-name="Calque 7">
    <g>
      <path class="cls-8" d="M467.53,445.04c1.72,1.08,1.83,1.82,1.02,3-5.56,8.01-10.8,16.21-16.7,24.03-13.74,18.22-27.84,36.23-41.7,54.38-12.3,16.1-24.85,32.04-39.82,46.44-1.98,1.91-3.57,4.11-5.7,5.89-2.71,2.26-6.92,3.3-10.55-.16-6.37-6.08-13.09-11.94-19.95-17.65-18.6-15.5-38.42-29.78-60.22-42.01-14.4-8.08-29.43-14.96-45.36-20.08-14.01-4.51-28.22-7.07-42.58-7.83-3.48-.18-6.6-.83-9.27-3.21-1.11-.99-2.52-1.77-3.83-2.62-6.58-4.25-13.05-8.63-19.79-12.66-3.99-2.39-8.02-5.06-13.05-5.44-.38-.03-.88-.52-1.16-.87-6.88-8.46-16.18-14.79-26.3-20.3-17.85-9.72-36.86-17.05-56.32-23.26-11.05-3.53-22.33-6.33-33.5-9.47-6.5-1.83-13.02-3.63-19.49-5.59-2.74-.83-3.78-3.51-1.91-5,1.78-1.41,3.88-2.61,6.07-3.6,1.17-.53,1.79-1.07,2.01-2.19,.44-2.23,1.35-4.36,1.64-6.62,.25-1.91-.09-3.94-.21-5.92,0-.16-.29-.35-.48-.5-1.94-1.57-1.97-2.61-.1-3.83,6.58-4.3,13.5-8.23,21.19-11.24,14.94-5.85,28.11-13.6,40.35-22.45,7.63-5.52,15.3-11.07,23.61-15.9,24.82-14.44,51.29-26.94,78.3-38.78,7.36-3.22,14.57-6.63,21.88-9.92,.54-.24,1.29-.23,1.95-.31,.41-.05,.86,0,1.25-.08,1.83-.36,3.6-1.01,5.49-1.07,15.43-.52,30.71,2.9,45.85,7.25,6.17,1.77,12.14,4.37,18.16,6.68,23.6,9.04,45.03,20.65,61.11,38.58,.35,.39,1.29,.68,1.91,.69,2.68,.02,5.33-.24,8.02-.1,12.54,.63,24.94,2.93,37.22,6.68,18.64,5.68,35.78,13.83,50.71,25.44,19.38,15.06,31.22,32.53,32.04,53.36,.01,.3,.22,.74,.51,.93,1.19,.79,.9,1.52,.4,2.25-1.61,2.33-3.18,4.68-4.89,6.95-.62,.82-.58,1.31,.37,2.16,3.12,2.77,3.07,2.81,1.45,5.8-.14,.27-.25,.55-.32,.69,3.62,2.55,7.04,5.14,10.7,7.44Zm-275.05,10.79c20,2.27,39.98,4.88,59.85,9.55,34.37,8.09,64.09,23.67,90.09,45.24,4.05,3.36,7.89,6.88,11.7,10.43,.88,.81,1.17,2.02,1.8,3.02,.41,.65,.95,1.27,1.57,2.08,1.2-.89,2.17-1.61,3.13-2.34,15.19-11.65,28.01-25.02,40.21-38.86,14.65-16.62,29.43-33.14,44.1-49.74,3.91-4.43,7.62-8.99,11.42-13.5,.34-.4,.62-.84,.37-1.17-.53-.84-1.47-1.72-1.52-2.52-.84-16.39-9.2-30.86-23.27-43.82-13.58-12.51-29.86-21.65-48-28.24-15.67-5.7-31.65-9.02-47.99-9.46-2.91-.08-4.96,.46-6.96,1.9-37.8,27.25-76,54.13-112.81,82.27-9.96,7.62-19.12,15.84-27.26,24.85-2.74,3.04-5.93,5.77-9.11,8.83,4.29,.5,8.48,1,12.67,1.47ZM46.33,379.31c45.75,6.24,85.13,23.9,116.7,55.19,4.86,4.82,9.46,9.82,12.11,16.03,1.5-1.23,2.91-2.24,4.12-3.41,4.78-4.61,9.36-9.35,14.25-13.88,10.38-9.62,21.86-18.33,33.69-26.73,30.03-21.33,60.16-42.56,90.28-63.81,3.4-2.4,6.97-4.65,10.88-7.24-3.29-3.28-6.37-6.69-9.87-9.8-9.83-8.72-21.45-15.42-33.78-21.19-5.53-2.59-11.51-4.45-16.8-7.35-8.54-4.68-17.79-6.81-27.01-9.05-11.88-2.88-23.84-4.68-35.73-4.14-1.45,.07-2.89,.2-4.33,.34-.27,.03-.64,.17-.71,.35-.77,2.05-5.35,2.49-7.31,3.36-14.19,6.32-26.33,12.59-40.39,19.06-21.02,9.67-41.94,19.51-60.77,31.7-9.22,5.97-18.03,12.35-26.95,18.62-8.48,5.96-18.33,10.29-28.35,14.43-4.48,1.85-8.85,3.83-13.1,5.67,7.75,.6,15.43,.8,23.08,1.84Zm395.12,66.17c-16.25,18.4-32.42,36.85-48.84,55.14-9.31,10.37-19.76,19.91-31.37,28.55-.42,.31-.44,.97-.79,1.38-.5,.59-.98,1.38-1.74,1.58-1.07,.28-1.91-.42-2.34-1.41-.43-.99-.92-1.97-1.52-2.91-.44-.68-1.02-1.34-1.68-1.9-1.38-1.17-3.01-2.16-4.28-3.39-20.4-19.72-44.39-35.25-72.45-45.98-14.26-5.45-28.98-9.12-43.89-11.42-17.32-2.68-34.67-4.88-52-7.29-1.36-.19-2.72-.46-4.07-.54-.91-.06-1.87,.02-2.67,.27-1.64,.52-3.07,.21-4.11-1.06-1.06-1.29-.96-2.55,.69-3.19,1.82-.71,1.68-1.72,.98-3.16-2.1-4.32-5.44-8.08-9.12-11.64-20.19-19.49-43.6-35.21-72.02-44.7-19.65-6.56-39.63-11.14-59.97-11.49-4.9-.09-9.65,.73-14.49,1.09-2.02,.15-2.95,.94-2.45,2.73,.12,.45,.06,.92,.08,1.23,4.85-.66,9.51-1.55,14.32-1.91,13.6-1.02,27.34,.83,41.06,4.31,22.91,5.82,43.87,15.44,63.06,28.28,11.56,7.74,21.41,16.7,28.3,27.55,.22,.35,.55,.7,.62,1.05,.08,.41-.08,.81-.13,1.22-.44-.25-1.07-.43-1.3-.77-10-14.63-24.77-25.49-41.33-34.85-17.82-10.07-36.92-17.15-57.1-21.32-14.13-2.92-28.06-3.92-41.48-1.32-1.33,.26-2.64,.55-3.93,.88-2.92,.74-2.95,.81-3.04,3.67,.51-.09,1.01-.13,1.44-.26,10.37-3.32,21.6-3.08,33.12-1.21,21.68,3.53,41.89,11.39,61.31,21.29,15.64,7.98,29.09,17.98,39.62,30.61,4.27,5.12,7.16,10.62,9.85,16.2,.58,1.2,1.17,1.78,2.79,1.88,1.91,.12,3.85,.6,6.03,.98-2.02-4.34-4.01-8.61-5.98-12.83,.28,.28,.83,.68,1.1,1.16,2.17,3.89,4.28,7.81,6.45,11.7,.23,.41,.61,.9,1.06,1.1,3.48,1.59,6.13,3.86,8.1,6.66,.59,.84,1.16,1.04,2.21,.99,19.32-.92,38.71,1.38,58.06,6.6,30.55,8.25,58.5,21.11,82.83,39.99,14.1,10.95,25.33,23.5,33.02,37.87,.08,.15,.21,.29,.47,.63,.71-.56,1.39-1.06,2.03-1.6,14.9-12.44,27.95-26.18,39.74-40.77,10.89-13.48,22.66-26.35,34.96-38.89,9.18-9.37,17.66-19.18,23.85-30.35,.94-1.7,.96-1.7-1.07-3.3-.32,.33-.65,.64-.96,.97-8.98,9.76-16.82,20.21-24.61,30.69-9.55,10.08-15.87,15.91-23.97,25.45-9.85,11.2-19.77,20.62-29.57,32.16-4.61,6.23-9.86,12.05-16.27,17.07-.56,.43-.88,1.06-1.4,1.53-.92,.84-2.53,.6-3.28-.46-11.67-16.47-26.85-30.51-44.74-42.88-16.06-11.11-33.1-20.56-52.16-26.72-10.15-3.28-20.56-5.79-30.87-8.56-6.68-1.8-14.22-2.27-20.9-4.05-5.56-1.1-8.55-1.39-13.96-2.15-4.97-.7-10.21-1.14-15.16-1.38-.89-.04-1.84-.17-2.7-.44-.51-.16-.89-.71-1.34-1.08,.49-.27,.96-.79,1.48-.77,2.12,.11,4.27,.43,6.39,.59,6.71,.48,13.69,1.15,20.35,2.28,8.69,1.47,17.07,3.08,25.71,5.15,7.43,1.78,14.82,3.75,22.24,5.53,18.88,4.54,36.15,12.34,52.21,22.51,13.07,8.27,25.32,17.32,36.51,27.35,6.05,5.42,10.52,11.66,15.36,17.72,.94,1.18,1.99,2.31,3.18,3.69,.82-.65,1.73-1.32,2.58-2.04,7.74-6.57,13.76-14.26,19.67-22.04,5.97-5.39,15.87-18.09,25.22-26.13,11.58-13.14,22.95-23.69,32.63-36.75,5.34-7.21,11.93-13.71,17.96-20.53,.64-.72,1.28-1.43,1.92-2.15,1.73-1.93,1.69-2.2-.62-4.28-.32-.29-.69-.55-1.14-.91-3.98,4.57-7.83,9.04-11.74,13.47Zm-288.46,10.15c-10.71-17.92-27.44-31.14-48.18-41.22-14.69-7.14-29.83-13.21-45.77-17.25-14.48-3.68-28.75-4.91-42.59-2.2-.6,.12-1.2,.25-1.78,.41-3.68,.95-4.33,1.99-3.45,5.07,4.7-.65,9.35-1.57,14.16-1.91,9.49-.66,19.13,.72,28.77,2.68,16.88,3.43,33.17,8.58,48.31,16.8,20.18,10.96,35.45,25.26,44.8,43.41,.46,.89,.92,1.23,2.02,1.16,2.32-.14,4.67-.19,7.37-.3-1.26-2.31-2.37-4.51-3.65-6.65Zm204.07,109.06c8.7-10.88,18.62-20.95,28.76-30.85,13.52-13.21,25.59-27.32,36.35-42.28,1.71-2.37,3.5-4.7,4.93-7.25-1.94,1.97-4,3.85-5.79,5.92-7.72,8.93-15.49,17.82-22.98,26.89-12.3,14.9-25.23,29.35-40.71,42.02-.47,.38-.9,.8-1.43,1.12-1.55,.92-3.86,.34-4.67-1.19-9.16-17.35-23.58-31.72-41.19-44.17-21.71-15.35-45.78-26.58-72.13-33.59-19.01-5.06-37.99-7.14-56.89-6.09-.5,.03-.99,.09-1.61,.15,.05,.29,.08,.54,.15,.79,.08,.26,.2,.52,.34,.86,.32,.04,.65,.15,.92,.11,10.29-1.63,20.89-.08,31.52,1.68,14.32,2.37,28.51,5.49,42.34,10.32,29.1,10.17,53.8,25.57,73.72,46.59,9.13,9.63,17.05,19.82,24.44,30.27,.41,.58,.83,1.15,1.4,1.94,.93-1.19,1.72-2.22,2.54-3.23Z"/>
      <path class="cls-5" d="M11.07,390.23s-.78,7.35-3.65,8.81c-2.87,1.46-9.45,4.28-6.81,6.44s28.5,8.4,28.5,8.4c0,0,87.01,21.73,110.91,53.25,0,0,15.93,.94,36.67,20.71,0,0,91.36,3.83,177.38,90.78,0,0,7.83,7.77,16.25-5.73,8.42-13.5,62.16-69.5,98.22-124.85,0,0,1.23-2.86-1.87-3.54,0,0-25.45-21.58-41.54-26.32-16.09-4.74-239.65-111.62-239.65-111.62L11.07,390.23Z"/>
      <path class="cls-3" d="M10.28,379.98s2.09,7.89,2.15,14.19c.02,2.57-.29,4.87-1.21,6.27-3.21,4.84,97.55-16.44,136.04,60.98,0,0,29.41-2.01,34.06,13.81,0,0,106.67-2.3,171.81,90.76,0,0,81.57-74.01,101.38-120.06l-1.07-3.3,4.78-8.55-6.18-4.51L52.1,355.92l-41.82,24.06Z"/>
      <path class="cls-3" d="M10.28,379.98s121.01,3.4,164.86,70.56c0,0,80.44-68.75,156.19-117.1,0,0-51.79-51.39-132.52-52.12,0,0-103.47,47.74-188.53,98.67Z"/>
      <path class="cls-3" d="M356.39,530.73s-46.21-69.99-181.25-80.19c0,0,113.33-92.98,156.19-117.1,0,0,118.62,7.64,128.49,86.31,0,0-90.63,99.92-103.43,110.98Z"/>
      <path class="cls-2" d="M157.81,460.8s-49.21-78.9-143.14-65.43"/>
      <path class="cls-2" d="M11.07,390.23s98.77-13.91,148.28,56.88"/>
      <path class="cls-2" d="M171.54,462.77s142.9,9.95,181.83,87.27c0,0,97.04-102.09,102.99-111.25"/>
      <path class="cls-2" d="M444.7,463.93s-83.38,94.07-90.77,93.61c-7.39-.46-51.52-86.68-172.62-82.31"/>
    </g>
  </g>
</svg>